<?xml version="1.0" standalone="no"?>
<svg viewBox="0 0 200 200" xmlns="http://www.w3.org/2000/svg">
  <path fill="#8B74B4" d="M42.9,-60.6C55.9,-49.6,67.1,-37.5,74.6,-22.4C82.1,-7.2,85.9,11,81.2,26.7C76.5,42.4,63.2,55.6,48.3,63.4C33.3,71.2,16.7,73.5,0.2,73.3C-16.3,73.1,-32.6,70.2,-45.8,61.8C-58.9,53.4,-68.9,39.5,-74.7,23.8C-80.4,8.1,-82,-9.5,-77.7,-26.1C-73.5,-42.6,-63.5,-58.2,-49.6,-68.9C-35.7,-79.7,-17.8,-85.6,-1.5,-83.6C14.9,-81.6,29.8,-71.6,42.9,-60.6Z" transform="translate(100 100)" />
</svg>
